#!OML:ASF E:\emotionWalksFemale\Project 1\Capture day 1\Session 1\Female1.ASF
:FULLY-SPECIFIED
:DEGREES
1695
root 11.8247 15.5373 -4.53047 361.7 -67.163 -7.26569
lowerback 3.7376 -0.0772054 -5.05998
upperback -6.09629 -0.719505 -1.60815
thorax -8.49637 -0.126668 1.2192
lowerneck -13.6265 -0.869569 -2.51735
upperneck 17.1678 -0.748328 0.135838
head 7.54193 -0.543653 0.377465
rclavicle -9.93923e-015 -1.59028e-015
rhumerus 27.9248 18.342 -47.6673
rradius 27.2651
rwrist 19.8966
rhand -6.98952 -41.0283
rfingers 7.12502
rthumb -161.119 -250.132
lclavicle -9.93923e-015 -1.59028e-015
lhumerus 23.4084 -13.989 57.0753
lradius 27.8847
lwrist -33.0411
lhand -3.25096 -37.5566
lfingers 7.12502
lthumb 22.4731 -8.84415
rfemur -22.7635 32.6233 4.03953
rtibia 15.1047
rfoot -44.4424 -41.9193
rtoes 37.8311
lfemur 21.4742 -22.9625 -27.1937
ltibia 9.25632
lfoot -22.9121 32.1309
ltoes -18.9863
1696
root 11.7209 15.5271 -4.52807 361.55 -67.1414 -6.98757
lowerback 3.66469 0.00440285 -5.05802
upperback -6.11366 -0.607992 -1.62771
thorax -8.47928 -0.0735301 1.1849
lowerneck -13.719 -0.927591 -2.68067
upperneck 17.2677 -0.807554 0.22867
head 7.59326 -0.574715 0.428215
rclavicle -4.65156e-014 -1.74931e-014
rhumerus 28.0396 18.1338 -47.9429
rradius 27.0082
rwrist 20.3142
rhand -6.52055 -41.9351
rfingers 7.12502
rthumb -160.668 -250.994
lclavicle -4.65156e-014 -1.74931e-014
lhumerus 23.4035 -13.4582 57.4083
lradius 27.5488
lwrist -33.7769
lhand -3.87171 -39.3416
lfingers 7.12502
lthumb 21.8771 -10.5584
rfemur -22.7036 33.2826 3.82726
rtibia 14.8632
rfoot -44.6639 -42.4571
rtoes 37.8256
lfemur 21.6556 -22.6501 -27.1484
ltibia 9.33158
lfoot -22.2526 32.1171
ltoes -21.6675
1697
root 11.6155 15.52 -4.52628 361.261 -67.0341 -6.48464
lowerback 3.49867 0.0314649 -5.26555
upperback -6.16584 -0.580767 -1.62159
thorax -8.44101 -0.0479249 1.30335
lowerneck -13.4673 -0.964791 -2.69853
upperneck 17.0312 -0.862486 0.230067
head 7.472 -0.599591 0.427081
rclavicle 1.90833e-014 -3.18055e-015
rhumerus 28.01 19.6239 -46.6191
rradius 27.9874
rwrist 18.7148
rhand -5.71933 -44.3654
rfingers 7.12502
rthumb -159.898 -253.345
lclavicle 1.90833e-014 -3.18055e-015
lhumerus 23.3449 -13.2902 57.6801
lradius 27.2721
lwrist -34.132
lhand -4.55519 -39.7124
lfingers 7.12502
lthumb 21.2207 -10.854
rfemur -22.6213 33.1193 3.79033
rtibia 14.6962
rfoot -43.5309 -43.2657
rtoes 35.923
lfemur 21.8141 -22.4484 -27.119
ltibia 9.28182
lfoot -21.8018 31.8938
ltoes -22.9285
1698
root 11.5114 15.5137 -4.52495 361.001 -66.8265 -6.01748
lowerback 3.4372 0.0443014 -5.36383
upperback -6.23465 -0.577689 -1.68361
thorax -8.48161 -0.041896 1.29174
lowerneck -13.3846 -0.992815 -2.45486
upperneck 16.979 -0.906034 -0.0314855
head 7.43857 -0.628909 0.297237
rclavicle -5.92378e-014 -4.77083e-014
rhumerus 27.5174 19.8785 -46.0673
rradius 28.4963
rwrist 18.2132
rhand -7.05064 -41.8588
rfingers 7.12502
rthumb -161.178 -250.968
lclavicle -5.92378e-014 -4.77083e-014
lhumerus 23.2645 -13.2394 57.8132
lradius 27.1919
lwrist -34.2786
lhand -4.95139 -39.8964
lfingers 7.12502
lthumb 20.8401 -10.9957
rfemur -22.4742 32.979 3.7147
rtibia 14.5748
rfoot -43.3537 -43.266
rtoes 35.921
lfemur 22.0331 -22.3578 -27.0428
ltibia 9.13179
lfoot -21.136 31.5482
ltoes -24.117
1699
root 11.4042 15.5067 -4.52372 360.622 -66.6793 -5.42953
lowerback 3.38984 0.122809 -5.48438
upperback -6.2822 -0.491343 -1.78779
thorax -8.51332 0.00420468 1.23922
lowerneck -13.4051 -1.08476 -2.41047
upperneck 17.0035 -1.03084 -0.0845379
head 7.45129 -0.690847 0.259546
rclavicle -4.09496e-014 2.06736e-014
rhumerus 27.6664 18.14 -47.9537
rradius 27.1003
rwrist 20.339
rhand -7.49616 -40.8181
rfingers 7.12502
rthumb -161.606 -249.968
lclavicle -4.09496e-014 2.06736e-014
lhumerus 23.2106 -13.5832 57.6357
lradius 27.3707
lwrist -33.9182
lhand -5.07668 -39.8962
lfingers 7.12502
lthumb 20.7197 -10.9823
rfemur -22.3314 32.8527 3.58834
rtibia 14.4649
rfoot -43.7679 -42.8632
rtoes 36.7564
lfemur 22.2957 -22.2054 -27.0208
ltibia 8.9532
lfoot -20.8478 30.9396
ltoes -23.7559
